<svg width="48" height="48" viewBox="0 0 48 48" fill="none" xmlns="http://www.w3.org/2000/svg">
<path d="M37.571 48H1V0H37.571V48Z" fill="#C9DFED"/>
<path d="M5.5708 37.7144H32.999V43.4286H5.5708V37.7144Z" fill="white"/>
<path d="M5.5708 4.57153H32.999V10.2858H5.5708V4.57153Z" fill="#95C0DC"/>
<path d="M5.5708 13.7144H32.999V34.2858H5.5708V13.7144Z" fill="white"/>
<path d="M38.6828 27.0811C38.6828 29.8768 35.999 30.2123 35.5517 30.2123V31.7778H34.4334V30.2123C33.9861 30.2123 31.0786 29.8768 31.0786 26.5219H33.3151C33.3151 26.8574 33.3151 28.423 34.9925 28.423C36.4463 28.423 36.4463 27.3047 36.4463 27.0811C36.4463 24.6209 31.4141 25.6273 31.4141 21.7134C31.4141 19.365 33.5388 18.5822 34.5452 18.5822V16.9048H35.7753V18.5822C36.5581 18.694 38.6828 19.2532 38.6828 22.1607H36.4463C36.4463 21.4897 36.3344 20.2596 34.9925 20.2596C33.7624 20.3714 33.7624 21.4897 33.7624 21.7134C33.7624 24.0617 38.6828 23.1671 38.6828 27.0811Z" fill="white"/>
<ellipse cx="35.0801" cy="24.4799" rx="9.11988" ry="9.12" fill="white"/>
<path d="M35.2676 13.1028C29.1015 13.1028 24.085 18.1194 24.085 24.2855C24.085 30.4517 29.1015 35.4683 35.2676 35.4683C41.4337 35.4683 46.4502 30.4517 46.4502 24.2855C46.4502 18.1194 41.4337 13.1028 35.2676 13.1028ZM35.2676 17.6877C36.0704 17.6877 36.7213 18.3386 36.7213 19.1415C36.7213 19.9444 36.0704 20.5952 35.2676 20.5952C34.4647 20.5952 33.8138 19.9444 33.8138 19.1415C33.8138 18.3386 34.4647 17.6877 35.2676 17.6877ZM37.9514 30.3242H33.031C32.537 30.3242 32.1364 29.9237 32.1364 29.4296C32.1364 28.9355 32.537 28.535 33.031 28.535H34.5966V23.6146H33.702C33.2079 23.6146 32.8074 23.214 32.8074 22.7199C32.8074 22.2259 33.2079 21.8253 33.702 21.8253H35.4912C35.9853 21.8253 36.3858 22.2259 36.3858 22.7199V28.535H37.9514C38.4455 28.535 38.846 28.9355 38.846 29.4296C38.846 29.9237 38.4455 30.3242 37.9514 30.3242Z" fill="#FE8F01"/>
</svg>
