<svg width="266" height="32" viewBox="0 0 266 32" fill="none" xmlns="http://www.w3.org/2000/svg">
<rect width="265.29" height="32" rx="1.92" fill="#F4F9FB"/>
<path d="M13.2681 23.742H9.57257V9.30066H18.9145V12.7381H13.2681V15.5768H17.9235V19.0142H13.2681V23.742Z" fill="#097FB5"/>
<path d="M30.7545 9.06323H30.9506L38.6719 23.5871L38.5584 23.7419H34.77L33.8822 21.8219H27.7506L26.8422 23.7419H23.1571L23.0435 23.5871L30.7545 9.06323ZM30.8474 15.2671L29.2577 18.6116H32.3958L30.8474 15.2671Z" fill="#097FB5"/>
<path d="M46.4861 23.7316H42.801V9.29028H46.4861V16.5264L51.441 9.29028H55.3739L55.4565 9.46577L50.3674 16.32L56.1377 23.5664L56.0552 23.7419H51.8332L46.4861 16.898V23.7316Z" fill="#097FB5"/>
<path d="M68.4422 23.742H64.757V12.8929H60.2667V9.30066H72.9532V12.8929H68.4525V23.742H68.4422Z" fill="#097FB5"/>
<path d="M80.7778 17.1252C80.7778 18.0542 81.0049 18.7871 81.459 19.3342C81.9132 19.8813 82.5945 20.1497 83.5132 20.1497C84.4732 20.1497 85.2061 19.8607 85.712 19.2723C86.2281 18.6839 86.4861 17.9303 86.4861 17.0013V9.06323H90.1713V17.6516C90.1713 19.3136 89.5416 20.7484 88.2823 21.9561C87.0332 23.1432 85.4436 23.7419 83.5132 23.7419C81.5623 23.7419 80.0036 23.1845 78.8371 22.0697C77.6707 20.9548 77.0823 19.5716 77.0823 17.8994V9.06323H80.7674V17.1252H80.7778Z" fill="#097FB5"/>
<path d="M97.9855 23.742H94.3003V9.30066H100.37C101.825 9.30066 103.054 9.73421 104.076 10.6116C105.118 11.489 105.645 12.7587 105.645 14.4413C105.645 16.3923 104.912 17.8478 103.456 18.8078L106.213 23.5871L106.13 23.742H102.362L100.112 19.8297H99.8642H97.9751V23.742H97.9855ZM99.5442 12.5007H97.9751V16.6194H99.2448C100.05 16.6194 100.7 16.4232 101.185 16.0413C101.671 15.6594 101.908 15.1432 101.908 14.4929C101.908 13.8529 101.691 13.3678 101.247 13.0168C100.804 12.6658 100.246 12.5007 99.5442 12.5007Z" fill="#097FB5"/>
<path d="M118.042 9.06323H118.238L125.96 23.5871L125.846 23.7419H122.068L121.18 21.8219H115.049L114.14 23.7419H110.455L110.342 23.5871L118.042 9.06323ZM118.135 15.2671L116.545 18.6116H119.684L118.135 15.2671Z" fill="#097FB5"/>
<path d="M145.12 16.5327C145.12 18.5425 144.423 20.2523 143.017 21.6521C141.621 23.042 139.805 23.7419 137.579 23.7419C135.342 23.7419 133.536 23.042 132.161 21.6521C130.786 20.2623 130.089 18.5525 130.089 16.5327C130.089 14.523 130.786 12.8132 132.192 11.3933C133.588 9.9935 135.404 9.29358 137.651 9.29358C139.898 9.29358 141.693 9.9935 143.048 11.3933C144.423 12.7932 145.12 14.503 145.12 16.5327ZM141.416 16.5527C141.416 15.4429 141.047 14.533 140.308 13.823C139.59 13.1331 138.687 12.7832 137.589 12.7832C136.491 12.7832 135.588 13.1331 134.87 13.823C134.152 14.513 133.793 15.4229 133.793 16.5527C133.793 17.6126 134.162 18.4825 134.891 19.1924C135.65 19.9023 136.553 20.2523 137.599 20.2523C138.636 20.2523 139.539 19.8923 140.298 19.1924C141.037 18.4825 141.416 17.6026 141.416 16.5527Z" fill="#222222"/>
<path d="M152.912 23.5119H149.249V9.29358H149.455L158.987 16.7227V9.52355H162.65V23.7419H162.444L152.912 16.1928V23.5119Z" fill="#222222"/>
<path d="M176.064 20.2523V23.7419H166.779V9.75354H170.442V20.2523H176.064Z" fill="#222222"/>
<path d="M183.856 23.7419H180.193V9.75354H183.856V23.7419Z" fill="#222222"/>
<path d="M191.648 23.5119H187.985V9.29358H188.191L197.723 16.7227V9.52355H201.386V23.7419H201.18L191.648 16.1928V23.5119Z" fill="#222222"/>
<path d="M214.8 20.4123V23.7419H205.515V9.75354H214.8V13.0832H209.178V15.4929H213.805V18.6025H209.178V20.4123H214.8Z" fill="#222222"/>
<path d="M220.526 23.7387C220.177 23.7587 219.869 23.6887 219.602 23.5087C219.336 23.3287 219.151 23.1088 219.038 22.8388C218.925 22.5688 218.905 22.2889 218.956 21.9789C219.007 21.6689 219.151 21.419 219.377 21.209C219.674 20.909 220.054 20.759 220.526 20.759C220.998 20.759 221.378 20.899 221.675 21.179C221.973 21.469 222.127 21.8089 222.127 22.2089C222.127 22.6588 221.973 23.0288 221.675 23.3187C221.378 23.6087 220.988 23.7387 220.526 23.7387Z" fill="#222222"/>
<path d="M233.694 20.2523C235.028 20.2523 236.136 19.6824 237.029 18.5425L239.728 21.0122C238.148 22.832 236.116 23.7419 233.612 23.7419C231.56 23.7419 229.816 23.052 228.38 21.6721C226.964 20.2823 226.256 18.5525 226.256 16.5027C226.256 14.433 226.974 12.7132 228.421 11.3433C229.867 9.9835 231.632 9.29358 233.705 9.29358C235.972 9.29358 237.881 10.0935 239.44 11.6833L236.752 14.113C235.993 13.2331 234.987 12.7932 233.756 12.7932C232.638 12.7932 231.724 13.1731 231.016 13.933C230.309 14.663 229.96 15.5229 229.96 16.5027C229.96 17.5126 230.309 18.3925 231.016 19.1424C231.724 19.8823 232.617 20.2523 233.694 20.2523Z" fill="#222222"/>
<path d="M255.543 20.2523V23.7419H243.939L243.857 23.5719L250.023 13.2331H244.821V9.75354H255.636L255.718 9.92352L249.531 20.2523H255.543Z" fill="#222222"/>
</svg>
